<svg id="Layer_1" data-name="Layer 1" xmlns="http://www.w3.org/2000/svg" viewBox="0 0 16 16"><defs><style>.cls-1{fill:#999;}</style></defs><title>Artboard 1</title><path class="cls-1" d="M15.33,3.67A.33.33,0,0,1,15,4H14v9.88A2,2,0,0,1,12.33,16H3.67A1.92,1.92,0,0,1,2,13.92V4H1a.33.33,0,0,1-.33-.33V3A.33.33,0,0,1,1,2.67H4.22L4.95.93A1.62,1.62,0,0,1,6.33,0H9.67a1.62,1.62,0,0,1,1.39.93l.73,1.74H15a.33.33,0,0,1,.33.33ZM6,5.67a.33.33,0,0,0-.33-.33H5a.33.33,0,0,0-.33.33V13a.33.33,0,0,0,.33.33h.67A.33.33,0,0,0,6,13Zm4.33-3-.5-1.22a.4.4,0,0,0-.18-.11H6.35a.35.35,0,0,0-.18.11L5.67,2.67Zm-1.67,3a.33.33,0,0,0-.33-.33H7.67a.33.33,0,0,0-.33.33V13a.33.33,0,0,0,.33.33h.67A.33.33,0,0,0,8.67,13Zm2.67,0A.33.33,0,0,0,11,5.33h-.67a.33.33,0,0,0-.33.33V13a.33.33,0,0,0,.33.33H11a.33.33,0,0,0,.33-.33Z"/></svg>